G04 #@! TF.FileFunction,Soldermask,Bot*
%FSLAX46Y46*%
G04 Gerber Fmt 4.6, Leading zero omitted, Abs format (unit mm)*
G04 Created by KiCad (PCBNEW 4.0.2-stable) date Mon 11 Apr 2016 05:04:25 PM CEST*
%MOMM*%
G01*
G04 APERTURE LIST*
%ADD10C,0.100000*%
G04 APERTURE END LIST*
D10*
G36*
X54700000Y-109000000D02*
X53000000Y-109000000D01*
X52994173Y-108996504D01*
X52504294Y-108702577D01*
X52504292Y-108702575D01*
X52500000Y-108700000D01*
X52500000Y-107650000D01*
X52498020Y-107636070D01*
X52492239Y-107623244D01*
X52483112Y-107612536D01*
X52471364Y-107604794D01*
X52457924Y-107600632D01*
X52450000Y-107600000D01*
X51900000Y-107600000D01*
X51900000Y-106100000D01*
X54700000Y-106100000D01*
X54700000Y-109000000D01*
X54700000Y-109000000D01*
G37*
G36*
X55705143Y-107845348D02*
X55806000Y-107866051D01*
X55900910Y-107905948D01*
X55986267Y-107963521D01*
X56058819Y-108036582D01*
X56115791Y-108122333D01*
X56155026Y-108217522D01*
X56174956Y-108318177D01*
X56174956Y-108318187D01*
X56175022Y-108318521D01*
X56173380Y-108436118D01*
X56173304Y-108436452D01*
X56173304Y-108436463D01*
X56150572Y-108536519D01*
X56108697Y-108630573D01*
X56049348Y-108714706D01*
X55974786Y-108785709D01*
X55887856Y-108840877D01*
X55791866Y-108878110D01*
X55690475Y-108895987D01*
X55587539Y-108893832D01*
X55486977Y-108871721D01*
X55392633Y-108830504D01*
X55308090Y-108771744D01*
X55236567Y-108697679D01*
X55180796Y-108611141D01*
X55142894Y-108515412D01*
X55124308Y-108414141D01*
X55125746Y-108311195D01*
X55147151Y-108210489D01*
X55187712Y-108115854D01*
X55245879Y-108030903D01*
X55319442Y-107958865D01*
X55405592Y-107902490D01*
X55501053Y-107863921D01*
X55602184Y-107844629D01*
X55705143Y-107845348D01*
X55705143Y-107845348D01*
G37*
G36*
X64633775Y-104136498D02*
X64777856Y-104166073D01*
X64913444Y-104223069D01*
X65035382Y-104305317D01*
X65139023Y-104409685D01*
X65220419Y-104532194D01*
X65276464Y-104668173D01*
X65304966Y-104812115D01*
X65304966Y-104812125D01*
X65305032Y-104812459D01*
X65302686Y-104980455D01*
X65302610Y-104980789D01*
X65302610Y-104980801D01*
X65270104Y-105123881D01*
X65210279Y-105258250D01*
X65125496Y-105378437D01*
X65018978Y-105479872D01*
X64894796Y-105558680D01*
X64757666Y-105611869D01*
X64612819Y-105637410D01*
X64465769Y-105634330D01*
X64322111Y-105602745D01*
X64187338Y-105543864D01*
X64066554Y-105459917D01*
X63964383Y-105354115D01*
X63884709Y-105230486D01*
X63830564Y-105093731D01*
X63804012Y-104949059D01*
X63806066Y-104801992D01*
X63836645Y-104658127D01*
X63894587Y-104522937D01*
X63977687Y-104401574D01*
X64082773Y-104298665D01*
X64205844Y-104218130D01*
X64342221Y-104163030D01*
X64486693Y-104135470D01*
X64633775Y-104136498D01*
X64633775Y-104136498D01*
G37*
G36*
X50832775Y-104096498D02*
X50976856Y-104126073D01*
X51112444Y-104183069D01*
X51234382Y-104265317D01*
X51338023Y-104369685D01*
X51419419Y-104492194D01*
X51475464Y-104628173D01*
X51503966Y-104772115D01*
X51503966Y-104772125D01*
X51504032Y-104772459D01*
X51501686Y-104940455D01*
X51501610Y-104940789D01*
X51501610Y-104940801D01*
X51469104Y-105083881D01*
X51409279Y-105218250D01*
X51324496Y-105338437D01*
X51217978Y-105439872D01*
X51093796Y-105518680D01*
X50956666Y-105571869D01*
X50811819Y-105597410D01*
X50664769Y-105594330D01*
X50521111Y-105562745D01*
X50386338Y-105503864D01*
X50265554Y-105419917D01*
X50163383Y-105314115D01*
X50083709Y-105190486D01*
X50029564Y-105053731D01*
X50003012Y-104909059D01*
X50005066Y-104761992D01*
X50035645Y-104618127D01*
X50093587Y-104482937D01*
X50176687Y-104361574D01*
X50281773Y-104258665D01*
X50404844Y-104178130D01*
X50541221Y-104123030D01*
X50685693Y-104095470D01*
X50832775Y-104096498D01*
X50832775Y-104096498D01*
G37*
G36*
X67162746Y-101306373D02*
X67178030Y-101311147D01*
X67347020Y-101335289D01*
X67516006Y-101359429D01*
X67516009Y-101359430D01*
X67520000Y-101360000D01*
X67820000Y-101510000D01*
X68070000Y-101760000D01*
X68070000Y-101810000D01*
X68041127Y-102012108D01*
X68020503Y-102156479D01*
X68020000Y-102163550D01*
X68020000Y-102450370D01*
X68023576Y-102468940D01*
X68218067Y-102955166D01*
X68222888Y-102964331D01*
X68249769Y-103004653D01*
X68320000Y-103110000D01*
X68317341Y-103116647D01*
X68317341Y-103116649D01*
X68265526Y-103246185D01*
X68220000Y-103360000D01*
X68217327Y-103363119D01*
X68217326Y-103363120D01*
X68142857Y-103450000D01*
X67920000Y-103710000D01*
X67620000Y-103910000D01*
X67503822Y-103948726D01*
X67173823Y-104058726D01*
X67173821Y-104058726D01*
X67170000Y-104060000D01*
X66920000Y-104060000D01*
X66916179Y-104058726D01*
X66916177Y-104058726D01*
X66768580Y-104009527D01*
X66620000Y-103960000D01*
X66362381Y-103849592D01*
X66274386Y-103811880D01*
X66274385Y-103811879D01*
X66270000Y-103810000D01*
X66020000Y-103560000D01*
X65770000Y-103210000D01*
X65688110Y-102964331D01*
X65671274Y-102913823D01*
X65671274Y-102913821D01*
X65670000Y-102910000D01*
X65670000Y-102360000D01*
X65674286Y-102350000D01*
X65819097Y-102012108D01*
X65820000Y-102010000D01*
X66020000Y-101710000D01*
X66320000Y-101510000D01*
X66320471Y-101509717D01*
X66320489Y-101509706D01*
X66566318Y-101362209D01*
X66566319Y-101362209D01*
X66570000Y-101360000D01*
X67070000Y-101260000D01*
X67162746Y-101306373D01*
X67162746Y-101306373D01*
G37*
G36*
X49150000Y-101250000D02*
X49153681Y-101252209D01*
X49153682Y-101252209D01*
X49399511Y-101399706D01*
X49399529Y-101399717D01*
X49400000Y-101400000D01*
X49700000Y-101600000D01*
X49900000Y-101900000D01*
X50050000Y-102250000D01*
X50050000Y-102800000D01*
X50048726Y-102803821D01*
X50048726Y-102803823D01*
X50012059Y-102913823D01*
X49950000Y-103100000D01*
X49700000Y-103450000D01*
X49450000Y-103700000D01*
X49445615Y-103701879D01*
X49445614Y-103701880D01*
X49426667Y-103710000D01*
X49100000Y-103850000D01*
X48951420Y-103899527D01*
X48803823Y-103948726D01*
X48803821Y-103948726D01*
X48800000Y-103950000D01*
X48550000Y-103950000D01*
X48546179Y-103948726D01*
X48546177Y-103948726D01*
X48248776Y-103849592D01*
X48100000Y-103800000D01*
X47800000Y-103600000D01*
X47500000Y-103250000D01*
X47482580Y-103206451D01*
X47401861Y-103004653D01*
X47401861Y-103004652D01*
X47400000Y-103000000D01*
X47403970Y-102994045D01*
X47403971Y-102994042D01*
X47497112Y-102854331D01*
X47501934Y-102845166D01*
X47696424Y-102358940D01*
X47700000Y-102340370D01*
X47700000Y-102053550D01*
X47699497Y-102046479D01*
X47678873Y-101902108D01*
X47650000Y-101700000D01*
X47650000Y-101650000D01*
X47900000Y-101400000D01*
X48200000Y-101250000D01*
X48203991Y-101249430D01*
X48203994Y-101249429D01*
X48372980Y-101225289D01*
X48541970Y-101201147D01*
X48557254Y-101196373D01*
X48650000Y-101150000D01*
X49150000Y-101250000D01*
X49150000Y-101250000D01*
G37*
G36*
X57300000Y-97200000D02*
X53900000Y-97200000D01*
X53900000Y-94300000D01*
X57300000Y-94300000D01*
X57300000Y-97200000D01*
X57300000Y-97200000D01*
G37*
G36*
X61800000Y-97200000D02*
X58400000Y-97200000D01*
X58400000Y-94300000D01*
X61800000Y-94300000D01*
X61800000Y-97200000D01*
X61800000Y-97200000D01*
G37*
G36*
X50078272Y-95280431D02*
X50203142Y-95306063D01*
X50320651Y-95355460D01*
X50426331Y-95426741D01*
X50516154Y-95517194D01*
X50586697Y-95623369D01*
X50635269Y-95741216D01*
X50659962Y-95865920D01*
X50659962Y-95865930D01*
X50660028Y-95866264D01*
X50657995Y-96011861D01*
X50657919Y-96012195D01*
X50657919Y-96012206D01*
X50629756Y-96136164D01*
X50577908Y-96252616D01*
X50504430Y-96356779D01*
X50412117Y-96444687D01*
X50304486Y-96512991D01*
X50185644Y-96559088D01*
X50060111Y-96581222D01*
X49932667Y-96578553D01*
X49808164Y-96551179D01*
X49691355Y-96500146D01*
X49586683Y-96427397D01*
X49498131Y-96335699D01*
X49429081Y-96228555D01*
X49382155Y-96110034D01*
X49359143Y-95984651D01*
X49360924Y-95857192D01*
X49387425Y-95732511D01*
X49437643Y-95615344D01*
X49509660Y-95510166D01*
X49600737Y-95420976D01*
X49707400Y-95351178D01*
X49825590Y-95303426D01*
X49950800Y-95279541D01*
X50078272Y-95280431D01*
X50078272Y-95280431D01*
G37*
G36*
X65850272Y-94996431D02*
X65975142Y-95022063D01*
X66092651Y-95071460D01*
X66198331Y-95142741D01*
X66288154Y-95233194D01*
X66358697Y-95339369D01*
X66407269Y-95457216D01*
X66431962Y-95581920D01*
X66431962Y-95581930D01*
X66432028Y-95582264D01*
X66429995Y-95727861D01*
X66429919Y-95728195D01*
X66429919Y-95728206D01*
X66401756Y-95852164D01*
X66349908Y-95968616D01*
X66276430Y-96072779D01*
X66184117Y-96160687D01*
X66076486Y-96228991D01*
X65957644Y-96275088D01*
X65832111Y-96297222D01*
X65704667Y-96294553D01*
X65580164Y-96267179D01*
X65463355Y-96216146D01*
X65358683Y-96143397D01*
X65270131Y-96051699D01*
X65201081Y-95944555D01*
X65154155Y-95826034D01*
X65131143Y-95700651D01*
X65132924Y-95573192D01*
X65159425Y-95448511D01*
X65209643Y-95331344D01*
X65281660Y-95226166D01*
X65372737Y-95136976D01*
X65479400Y-95067178D01*
X65597590Y-95019426D01*
X65722800Y-94995541D01*
X65850272Y-94996431D01*
X65850272Y-94996431D01*
G37*
G36*
X64500775Y-86569498D02*
X64644856Y-86599073D01*
X64780444Y-86656069D01*
X64902382Y-86738317D01*
X65006023Y-86842685D01*
X65087419Y-86965194D01*
X65143464Y-87101173D01*
X65171966Y-87245115D01*
X65171966Y-87245125D01*
X65172032Y-87245459D01*
X65169686Y-87413455D01*
X65169610Y-87413789D01*
X65169610Y-87413801D01*
X65137104Y-87556881D01*
X65077279Y-87691250D01*
X64992496Y-87811437D01*
X64885978Y-87912872D01*
X64761796Y-87991680D01*
X64624666Y-88044869D01*
X64479819Y-88070410D01*
X64332769Y-88067330D01*
X64189111Y-88035745D01*
X64054338Y-87976864D01*
X63933554Y-87892917D01*
X63831383Y-87787115D01*
X63751709Y-87663486D01*
X63697564Y-87526731D01*
X63671012Y-87382059D01*
X63673066Y-87234992D01*
X63703645Y-87091127D01*
X63761587Y-86955937D01*
X63844687Y-86834574D01*
X63949773Y-86731665D01*
X64072844Y-86651130D01*
X64209221Y-86596030D01*
X64353693Y-86568470D01*
X64500775Y-86569498D01*
X64500775Y-86569498D01*
G37*
G36*
X51526775Y-86500498D02*
X51670856Y-86530073D01*
X51806444Y-86587069D01*
X51928382Y-86669317D01*
X52032023Y-86773685D01*
X52113419Y-86896194D01*
X52169464Y-87032173D01*
X52197966Y-87176115D01*
X52197966Y-87176125D01*
X52198032Y-87176459D01*
X52195686Y-87344455D01*
X52195610Y-87344789D01*
X52195610Y-87344801D01*
X52163104Y-87487881D01*
X52103279Y-87622250D01*
X52018496Y-87742437D01*
X51911978Y-87843872D01*
X51787796Y-87922680D01*
X51650666Y-87975869D01*
X51505819Y-88001410D01*
X51358769Y-87998330D01*
X51215111Y-87966745D01*
X51080338Y-87907864D01*
X50959554Y-87823917D01*
X50857383Y-87718115D01*
X50777709Y-87594486D01*
X50723564Y-87457731D01*
X50697012Y-87313059D01*
X50699066Y-87165992D01*
X50729645Y-87022127D01*
X50787587Y-86886937D01*
X50870687Y-86765574D01*
X50975773Y-86662665D01*
X51098844Y-86582130D01*
X51235221Y-86527030D01*
X51379693Y-86499470D01*
X51526775Y-86500498D01*
X51526775Y-86500498D01*
G37*
M02*
