M48
;DRILL file {KiCad 4.0.2-stable} date Mon 11 Apr 2016 05:04:58 PM CEST
;FORMAT={-:-/ absolute / metric / decimal}
FMAT,2
METRIC,TZ
T1C0.300
T2C0.400
T3C0.850
T4C2.000
T5C2.800
T6C0.850
T7C1.100
T8C1.300
%
G90
G05
M71
T1
X46.5Y-95.55
X47.456Y-99.291
X47.605Y-98.691
X47.8Y-94.4
X48.5Y-93.
X48.55Y-93.768
X48.805Y-92.141
X49.505Y-92.141
X50.206Y-92.141
X50.365Y-98.13
X50.605Y-102.991
X50.768Y-94.5
X50.905Y-92.441
X51.555Y-92.291
X51.883Y-103.132
X52.23Y-104.491
X52.255Y-92.141
X52.355Y-100.241
X52.355Y-101.241
X52.387Y-99.25
X52.505Y-102.341
X52.655Y-102.941
X52.741Y-98.75
X52.741Y-99.75
X52.755Y-100.741
X52.755Y-101.741
X53.63Y-93.791
X53.988Y-93.2
X54.6Y-93.2
X55.148Y-89.798
X55.304Y-93.2
X55.85Y-89.796
X55.916Y-93.209
X56.552Y-89.794
X56.581Y-95.744
X57.155Y-92.041
X57.855Y-92.041
X58.005Y-93.091
X58.555Y-92.041
X58.919Y-95.744
X59.155Y-103.891
X59.405Y-92.891
X59.905Y-105.091
X62.805Y-105.341
X63.121Y-105.866
X63.155Y-103.141
X63.605Y-103.591
X64.605Y-97.691
X65.906Y-97.641
X66.156Y-104.266
X66.505Y-94.941
X67.531Y-97.591
X67.68Y-92.691
X67.706Y-95.141
X69.105Y-93.791
T2
X49.905Y-103.941
X53.305Y-105.191
X53.405Y-103.941
X55.244Y-101.256
X58.305Y-103.891
X59.255Y-89.241
X62.45Y-102.896
X62.855Y-93.991
X64.005Y-98.391
X66.105Y-93.616
X67.031Y-98.266
T3
X51.835Y-108.321
T4
X57.956Y-99.291
T5
X45.6Y-92.3
X45.6Y-101.9
X70.2Y-102.1
T6
X55.65Y-108.37
T7
X50.01Y-95.93
X65.782Y-95.646
T8
X50.754Y-104.846
X51.448Y-87.25
X64.422Y-87.319
X64.555Y-104.886
T0
M30
