G04 #@! TF.FileFunction,Copper,L2,Bot,Signal*
%FSLAX46Y46*%
G04 Gerber Fmt 4.6, Leading zero omitted, Abs format (unit mm)*
G04 Created by KiCad (PCBNEW 4.0.2-stable) date Mon 11 Apr 2016 05:04:25 PM CEST*
%MOMM*%
G01*
G04 APERTURE LIST*
%ADD10C,0.100000*%
%ADD11C,4.000000*%
%ADD12C,0.460000*%
%ADD13C,2.500000*%
%ADD14C,0.600000*%
%ADD15C,1.200000*%
%ADD16C,0.200000*%
%ADD17C,0.300000*%
%ADD18C,0.254000*%
G04 APERTURE END LIST*
D10*
D11*
X70200000Y-102100000D03*
X45600000Y-101900000D03*
X45600000Y-92300000D03*
D12*
X59155500Y-103891000D03*
X59405500Y-92891000D03*
D13*
X57955500Y-99291000D03*
D14*
X66105500Y-93616000D03*
X67030500Y-98266000D03*
X64005500Y-98391000D03*
X53405500Y-103941000D03*
X55243750Y-101256250D03*
D12*
X58918750Y-95743750D03*
D14*
X59255500Y-89241000D03*
D12*
X56581250Y-95743750D03*
X47800000Y-94400000D03*
X48500009Y-93000000D03*
X49505500Y-92141000D03*
X52505500Y-102341000D03*
X52655500Y-102941000D03*
X48805500Y-92141000D03*
X52755500Y-101741000D03*
X50205500Y-92141000D03*
X50905500Y-92441000D03*
X52355500Y-101241000D03*
X52355500Y-100241000D03*
X52255500Y-92141000D03*
X52755500Y-100741000D03*
X51555500Y-92291000D03*
X58005500Y-93091000D03*
X55916192Y-93209160D03*
X58555500Y-92041000D03*
X55303850Y-93200018D03*
X57855500Y-92041000D03*
X54600000Y-93200000D03*
X57155500Y-92041000D03*
X53987597Y-93200000D03*
X56552000Y-89794500D03*
X52740965Y-98750006D03*
X55850000Y-89796500D03*
X52387362Y-99250005D03*
X55148000Y-89798500D03*
X52740965Y-99750006D03*
D15*
X51835500Y-108321000D03*
D12*
X46500000Y-95550000D03*
X48549999Y-93767768D03*
X52230500Y-104491000D03*
X59905500Y-105091000D03*
X47455500Y-99291000D03*
X50605500Y-102991000D03*
X66155500Y-104266000D03*
X62805500Y-105341000D03*
D14*
X49905500Y-103941000D03*
D12*
X53630022Y-93791000D03*
D14*
X62855500Y-93991000D03*
X53305500Y-105191000D03*
X62450000Y-102896500D03*
X58305500Y-103891000D03*
D12*
X66505500Y-94941000D03*
X64605500Y-97691000D03*
X63155500Y-103141000D03*
X67705500Y-95141000D03*
X69105500Y-93791000D03*
X63605500Y-103591000D03*
X67680500Y-92691000D03*
X67530500Y-97591000D03*
X65905500Y-97641000D03*
X63121298Y-105865698D03*
X50365321Y-98130000D03*
X50767590Y-94500000D03*
X51883039Y-103132099D03*
X47605500Y-98691000D03*
D16*
X59155500Y-103891000D02*
X59605500Y-103891000D01*
X59605500Y-103891000D02*
X62205500Y-101291000D01*
X59405500Y-92891000D02*
X61105500Y-92891000D01*
X61105500Y-92891000D02*
X62205500Y-93991000D01*
X62205500Y-93991000D02*
X62205500Y-101291000D01*
X58055500Y-99591000D02*
X56855500Y-98391000D01*
X56581250Y-96216750D02*
X56855500Y-96491000D01*
X56855500Y-96491000D02*
X56855500Y-98391000D01*
X56581250Y-95743750D02*
X56581250Y-96216750D01*
X56581250Y-95743750D02*
X55243750Y-95743750D01*
D17*
X65230500Y-93616000D02*
X66105500Y-93616000D01*
X64005500Y-94841000D02*
X65230500Y-93616000D01*
X67030500Y-98266000D02*
X64130500Y-98266000D01*
X64130500Y-98266000D02*
X64005500Y-98391000D01*
X64005500Y-98391000D02*
X64005500Y-94841000D01*
X55243750Y-102102750D02*
X53405500Y-103941000D01*
X55243750Y-101256250D02*
X55243750Y-102102750D01*
X59255500Y-89191000D02*
X59255500Y-92191000D01*
X59255500Y-92191000D02*
X58755500Y-92691000D01*
X58755500Y-92691000D02*
X58755500Y-95530500D01*
X58755500Y-95580500D02*
X58918750Y-95743750D01*
D16*
X47800000Y-94400000D02*
X47800000Y-93700009D01*
X47800000Y-93700009D02*
X48500009Y-93000000D01*
X49655500Y-92316000D02*
X49505500Y-92166000D01*
X49505500Y-92166000D02*
X49505500Y-92141000D01*
X49655500Y-94246118D02*
X49655500Y-92316000D01*
X49555500Y-94346118D02*
X49655500Y-94246118D01*
X52505500Y-102341000D02*
X52272543Y-102341000D01*
X52272543Y-102341000D02*
X48452410Y-98520867D01*
X48452410Y-98520867D02*
X48452410Y-95449208D01*
X48452410Y-95449208D02*
X49555500Y-94346118D01*
X52374171Y-102941000D02*
X52655500Y-102941000D01*
X52274171Y-102841000D02*
X52374171Y-102941000D01*
X52274171Y-102841000D02*
X48100008Y-98666837D01*
X48100008Y-98666837D02*
X48100008Y-95303238D01*
X48100008Y-95303238D02*
X49108873Y-94294373D01*
X49108873Y-94294373D02*
X49108873Y-92444373D01*
X49108873Y-92444373D02*
X48805500Y-92141000D01*
X50205500Y-94191000D02*
X50205500Y-92141000D01*
X50082401Y-94317589D02*
X50082401Y-94314099D01*
X50082401Y-94314099D02*
X50205500Y-94191000D01*
X49682245Y-94717745D02*
X50082401Y-94317589D01*
X48804812Y-98374897D02*
X48804812Y-95595178D01*
X51413208Y-100983293D02*
X48804812Y-98374897D01*
X52170915Y-101741000D02*
X51413208Y-100983293D01*
X52755500Y-101741000D02*
X52170915Y-101741000D01*
X48804812Y-95595178D02*
X49682245Y-94717745D01*
X50847739Y-98791000D02*
X50847739Y-97826083D01*
X50847739Y-97826083D02*
X51294161Y-97379661D01*
X50847739Y-99919452D02*
X50847739Y-98791000D01*
X51387394Y-100459107D02*
X50847739Y-99919452D01*
X52169287Y-101241000D02*
X51387394Y-100459107D01*
X52355500Y-101241000D02*
X52169287Y-101241000D01*
X51294161Y-97379661D02*
X51385570Y-97288252D01*
X51385570Y-92921070D02*
X50905500Y-92441000D01*
X51385570Y-97288252D02*
X51385570Y-92921070D01*
X51294161Y-97379661D02*
X51244161Y-97429661D01*
X51892533Y-97778033D02*
X52090374Y-97580192D01*
X51552543Y-99627512D02*
X51552543Y-98441000D01*
X51552543Y-98441000D02*
X51552543Y-98118023D01*
X51552543Y-98118023D02*
X51892533Y-97778033D01*
X52166031Y-100241000D02*
X51685766Y-99760735D01*
X52355500Y-100241000D02*
X52166031Y-100241000D01*
X51685766Y-99760735D02*
X51552543Y-99627512D01*
X52090374Y-92306126D02*
X52255500Y-92141000D01*
X52090374Y-97580192D02*
X52090374Y-92306126D01*
X51568347Y-97603847D02*
X51737972Y-97434222D01*
X51737972Y-97434222D02*
X51737972Y-92473472D01*
X51737972Y-92473472D02*
X51555500Y-92291000D01*
X51586580Y-100159921D02*
X51200141Y-99773482D01*
X52755500Y-100741000D02*
X52167659Y-100741000D01*
X52167659Y-100741000D02*
X51586580Y-100159921D01*
X51200141Y-97972053D02*
X51568347Y-97603847D01*
X51200141Y-99773482D02*
X51200141Y-97972053D01*
X57868279Y-93228221D02*
X58005500Y-93091000D01*
X56632001Y-93228221D02*
X57868279Y-93228221D01*
X55916192Y-93209160D02*
X56612940Y-93209160D01*
X56612940Y-93209160D02*
X56632001Y-93228221D01*
X57853883Y-92541000D02*
X58055500Y-92541000D01*
X58055500Y-92541000D02*
X58555500Y-92041000D01*
X57519072Y-92875811D02*
X57853883Y-92541000D01*
X55303850Y-93200018D02*
X55303850Y-92874749D01*
X55303850Y-92874749D02*
X55518958Y-92659641D01*
X56561805Y-92659641D02*
X56777974Y-92875811D01*
X55518958Y-92659641D02*
X56561805Y-92659641D01*
X56777974Y-92875811D02*
X57519072Y-92875811D01*
X57373099Y-92523401D02*
X57855500Y-92041000D01*
X55167501Y-92307230D02*
X56707776Y-92307230D01*
X56707776Y-92307230D02*
X56923947Y-92523401D01*
X56923947Y-92523401D02*
X57373099Y-92523401D01*
X54600000Y-93200000D02*
X54600000Y-92874731D01*
X54600000Y-92874731D02*
X55167501Y-92307230D01*
X57069321Y-91954821D02*
X57155500Y-92041000D01*
X54845179Y-91954821D02*
X57069321Y-91954821D01*
X53987597Y-93200000D02*
X53987597Y-92812403D01*
X53987597Y-92812403D02*
X54845179Y-91954821D01*
X53147612Y-93148888D02*
X54694089Y-91602411D01*
X54694089Y-91602411D02*
X55897589Y-91602411D01*
X53147612Y-98018090D02*
X53147612Y-93148888D01*
X56552000Y-89794500D02*
X56552000Y-90948000D01*
X56552000Y-90948000D02*
X55897589Y-91602411D01*
X53147612Y-98018090D02*
X52740965Y-98424737D01*
X52740965Y-98424737D02*
X52740965Y-98750006D01*
X52795202Y-93001298D02*
X54546500Y-91250000D01*
X54546500Y-91250000D02*
X55346500Y-91250000D01*
X52795202Y-97872118D02*
X52795202Y-93001298D01*
X52387362Y-99250005D02*
X52258564Y-99121207D01*
X52258564Y-99121207D02*
X52258564Y-98408756D01*
X52258564Y-98408756D02*
X52795202Y-97872118D01*
X55850000Y-90735500D02*
X55850000Y-89796500D01*
X55346500Y-91250000D02*
X55855500Y-90741000D01*
X55855500Y-90741000D02*
X55850000Y-90735500D01*
X52442792Y-92853708D02*
X54398910Y-90897590D01*
X54398910Y-90897590D02*
X54852410Y-90897590D01*
X52442792Y-97726146D02*
X52442792Y-92853708D01*
X55148000Y-89798500D02*
X55148000Y-90602000D01*
X52442792Y-97726146D02*
X51904961Y-98263977D01*
X55148000Y-90602000D02*
X54852410Y-90897590D01*
X51904961Y-98263977D02*
X51904961Y-99481558D01*
X51904961Y-99481558D02*
X52173409Y-99750006D01*
X52173409Y-99750006D02*
X52740965Y-99750006D01*
X52965500Y-108321000D02*
X53165500Y-108121000D01*
X51835500Y-108321000D02*
X52965500Y-108321000D01*
X46500000Y-95550000D02*
X47354853Y-95550000D01*
X47354853Y-95550000D02*
X48549999Y-94354854D01*
X48549999Y-94354854D02*
X48549999Y-93767768D01*
X52753099Y-105456153D02*
X53040347Y-105743401D01*
X52436407Y-104491000D02*
X52753099Y-104807692D01*
X52753099Y-104807692D02*
X52753099Y-105456153D01*
X53040347Y-105743401D02*
X59253099Y-105743401D01*
X59253099Y-105743401D02*
X59905500Y-105091000D01*
X52230500Y-104491000D02*
X52436407Y-104491000D01*
X50605500Y-102169073D02*
X50605500Y-102991000D01*
X47727427Y-99291000D02*
X50605500Y-102169073D01*
X47455500Y-99291000D02*
X47727427Y-99291000D01*
X62805500Y-105341000D02*
X63605500Y-105341000D01*
X63605500Y-105341000D02*
X64178090Y-105913590D01*
X64178090Y-105913590D02*
X65357910Y-105913590D01*
X65357910Y-105913590D02*
X66130500Y-105141000D01*
X66130500Y-105141000D02*
X66130500Y-104291000D01*
X66130500Y-104291000D02*
X66155500Y-104266000D01*
D17*
X49905500Y-103941000D02*
X50155500Y-103691000D01*
X49655500Y-103691000D02*
X49055500Y-103091000D01*
X50155500Y-103691000D02*
X49655500Y-103691000D01*
X51405500Y-103691000D02*
X50155500Y-103691000D01*
X58305500Y-103891000D02*
X58305500Y-104541000D01*
X58305500Y-104541000D02*
X58355500Y-104591000D01*
X52205500Y-103691000D02*
X52705500Y-103691000D01*
X52705500Y-103691000D02*
X53550022Y-102846478D01*
X53550022Y-102846478D02*
X53550022Y-93871000D01*
X53550022Y-93871000D02*
X53630022Y-93791000D01*
X62655500Y-94191000D02*
X62855500Y-93991000D01*
X62655500Y-100441000D02*
X62655500Y-94191000D01*
X65405500Y-102591000D02*
X67055500Y-102591000D01*
X63855500Y-104141000D02*
X65405500Y-102591000D01*
X63305500Y-104141000D02*
X63855500Y-104141000D01*
X62450000Y-103285500D02*
X63305500Y-104141000D01*
X62450000Y-102896500D02*
X62450000Y-103285500D01*
X53305500Y-105191000D02*
X53305500Y-104791000D01*
X53305500Y-104791000D02*
X53105500Y-104591000D01*
X59555500Y-104591000D02*
X58355500Y-104591000D01*
X58355500Y-104591000D02*
X53105500Y-104591000D01*
X52205500Y-103691000D02*
X51405500Y-103691000D01*
X61805500Y-102341000D02*
X59555500Y-104591000D01*
X53105500Y-104591000D02*
X52205500Y-103691000D01*
X62450000Y-102896500D02*
X61894500Y-102341000D01*
X61894500Y-102341000D02*
X61805500Y-102341000D01*
X62655500Y-101491000D02*
X61805500Y-102341000D01*
X62655500Y-100441000D02*
X62655500Y-101491000D01*
D16*
X65155500Y-94591000D02*
X66155500Y-94591000D01*
X66505500Y-94941000D02*
X66155500Y-94591000D01*
X64605500Y-95141000D02*
X65155500Y-94591000D01*
X64605500Y-97691000D02*
X64605500Y-95141000D01*
X67705500Y-95141000D02*
X68155500Y-95591000D01*
X68155500Y-95591000D02*
X68155500Y-97941000D01*
X68155500Y-97941000D02*
X63155500Y-102941000D01*
X63155500Y-102941000D02*
X63155500Y-103141000D01*
X69005500Y-93891000D02*
X69105500Y-93791000D01*
X69005500Y-97641000D02*
X69005500Y-93891000D01*
X69005500Y-97641000D02*
X63655500Y-102991000D01*
X63655500Y-103541000D02*
X63605500Y-103591000D01*
X63655500Y-102991000D02*
X63655500Y-103541000D01*
X67105500Y-93166000D02*
X67580500Y-92691000D01*
X67580500Y-92691000D02*
X67680500Y-92691000D01*
X67105500Y-93691000D02*
X67105500Y-93166000D01*
X67530500Y-97591000D02*
X65955500Y-97591000D01*
X65955500Y-97591000D02*
X65905500Y-97641000D01*
X65905500Y-97641000D02*
X66730500Y-96816000D01*
X66730500Y-96816000D02*
X67105500Y-96441000D01*
X67105500Y-96441000D02*
X67105500Y-93691000D01*
X70200000Y-102100000D02*
X66034000Y-106266000D01*
X66034000Y-106266000D02*
X64032118Y-106266000D01*
X64032118Y-106266000D02*
X63631816Y-105865698D01*
X63631816Y-105865698D02*
X63121298Y-105865698D01*
X50365321Y-98130000D02*
X50370000Y-98130000D01*
X50370000Y-98130000D02*
X50495321Y-98004679D01*
X50495321Y-98004679D02*
X50495321Y-97680085D01*
X50495321Y-97680085D02*
X51033152Y-97142255D01*
X51033152Y-97142255D02*
X51033152Y-94765562D01*
X51033152Y-94765562D02*
X50767590Y-94500000D01*
X51883039Y-103132099D02*
X51855500Y-103104560D01*
X51855500Y-103104560D02*
X51855500Y-102920701D01*
X51855500Y-102920701D02*
X47625799Y-98691000D01*
X47625799Y-98691000D02*
X47605500Y-98691000D01*
X47625799Y-98691000D02*
X47605500Y-98691000D01*
D18*
G36*
X57173000Y-97073000D02*
X54027022Y-97073000D01*
X54027022Y-94427000D01*
X57173000Y-94427000D01*
X57173000Y-97073000D01*
X57173000Y-97073000D01*
G37*
X57173000Y-97073000D02*
X54027022Y-97073000D01*
X54027022Y-94427000D01*
X57173000Y-94427000D01*
X57173000Y-97073000D01*
G36*
X61470500Y-97073000D02*
X58527000Y-97073000D01*
X58527000Y-94427000D01*
X61470500Y-94427000D01*
X61470500Y-97073000D01*
X61470500Y-97073000D01*
G37*
X61470500Y-97073000D02*
X58527000Y-97073000D01*
X58527000Y-94427000D01*
X61470500Y-94427000D01*
X61470500Y-97073000D01*
G36*
X49076043Y-101360724D02*
X49335201Y-101502644D01*
X49739552Y-101906995D01*
X49849766Y-102095933D01*
X49931711Y-102496554D01*
X49895631Y-102857357D01*
X49731671Y-103230821D01*
X49460691Y-103537932D01*
X49084570Y-103730579D01*
X48841916Y-103793489D01*
X48547212Y-103802420D01*
X48192897Y-103693400D01*
X47881619Y-103501140D01*
X47675089Y-103276651D01*
X47604775Y-103139930D01*
X47926596Y-102364900D01*
X47927303Y-101554433D01*
X48166294Y-101395105D01*
X48432323Y-101306429D01*
X48759172Y-101297350D01*
X49076043Y-101360724D01*
X49076043Y-101360724D01*
G37*
X49076043Y-101360724D02*
X49335201Y-101502644D01*
X49739552Y-101906995D01*
X49849766Y-102095933D01*
X49931711Y-102496554D01*
X49895631Y-102857357D01*
X49731671Y-103230821D01*
X49460691Y-103537932D01*
X49084570Y-103730579D01*
X48841916Y-103793489D01*
X48547212Y-103802420D01*
X48192897Y-103693400D01*
X47881619Y-103501140D01*
X47675089Y-103276651D01*
X47604775Y-103139930D01*
X47926596Y-102364900D01*
X47927303Y-101554433D01*
X48166294Y-101395105D01*
X48432323Y-101306429D01*
X48759172Y-101297350D01*
X49076043Y-101360724D01*
G36*
X67277677Y-101426429D02*
X67543706Y-101515105D01*
X67817720Y-101697781D01*
X67873298Y-101756285D01*
X67872597Y-102560838D01*
X68136405Y-103199302D01*
X68034911Y-103396651D01*
X67828381Y-103621140D01*
X67517103Y-103813400D01*
X67162788Y-103922420D01*
X66868084Y-103913489D01*
X66625430Y-103850579D01*
X66249309Y-103657932D01*
X65978329Y-103350821D01*
X65814369Y-102977357D01*
X65778289Y-102616554D01*
X65860234Y-102215933D01*
X66051420Y-101888186D01*
X66246949Y-101692657D01*
X66633957Y-101480724D01*
X66950828Y-101417350D01*
X67277677Y-101426429D01*
X67277677Y-101426429D01*
G37*
X67277677Y-101426429D02*
X67543706Y-101515105D01*
X67817720Y-101697781D01*
X67873298Y-101756285D01*
X67872597Y-102560838D01*
X68136405Y-103199302D01*
X68034911Y-103396651D01*
X67828381Y-103621140D01*
X67517103Y-103813400D01*
X67162788Y-103922420D01*
X66868084Y-103913489D01*
X66625430Y-103850579D01*
X66249309Y-103657932D01*
X65978329Y-103350821D01*
X65814369Y-102977357D01*
X65778289Y-102616554D01*
X65860234Y-102215933D01*
X66051420Y-101888186D01*
X66246949Y-101692657D01*
X66633957Y-101480724D01*
X66950828Y-101417350D01*
X67277677Y-101426429D01*
G36*
X54573000Y-108873000D02*
X53061622Y-108873000D01*
X52973446Y-108835961D01*
X52627000Y-108628093D01*
X52627000Y-107600000D01*
X52616994Y-107550590D01*
X52588553Y-107508965D01*
X52546159Y-107481685D01*
X52500000Y-107473000D01*
X52027000Y-107473000D01*
X52027000Y-106227000D01*
X54573000Y-106227000D01*
X54573000Y-108873000D01*
X54573000Y-108873000D01*
G37*
X54573000Y-108873000D02*
X53061622Y-108873000D01*
X52973446Y-108835961D01*
X52627000Y-108628093D01*
X52627000Y-107600000D01*
X52616994Y-107550590D01*
X52588553Y-107508965D01*
X52546159Y-107481685D01*
X52500000Y-107473000D01*
X52027000Y-107473000D01*
X52027000Y-106227000D01*
X54573000Y-106227000D01*
X54573000Y-108873000D01*
G36*
X59528500Y-100664000D02*
X56382500Y-100664000D01*
X56382500Y-97018000D01*
X59528500Y-97018000D01*
X59528500Y-100664000D01*
X59528500Y-100664000D01*
G37*
X59528500Y-100664000D02*
X56382500Y-100664000D01*
X56382500Y-97018000D01*
X59528500Y-97018000D01*
X59528500Y-100664000D01*
M02*
