G04 #@! TF.FileFunction,Profile,NP*
%FSLAX46Y46*%
G04 Gerber Fmt 4.6, Leading zero omitted, Abs format (unit mm)*
G04 Created by KiCad (PCBNEW 4.0.2-stable) date Mon 11 Apr 2016 05:04:25 PM CEST*
%MOMM*%
G01*
G04 APERTURE LIST*
%ADD10C,0.100000*%
G04 APERTURE END LIST*
D10*
X57280500Y-106266000D02*
X63655500Y-106266000D01*
X57280500Y-108166000D02*
X57280500Y-106266000D01*
X63655500Y-106266000D02*
X63655500Y-108166000D01*
X63655500Y-108166000D02*
X57280500Y-108166000D01*
X69600000Y-100750000D02*
X69150000Y-103150000D01*
X46000000Y-100400000D02*
X46600000Y-103100000D01*
X46200000Y-93500000D02*
X46699320Y-91500000D01*
X53166177Y-84933148D02*
X52639743Y-85153208D01*
X46688850Y-90334506D02*
X46700000Y-91500000D01*
X68682851Y-104199223D02*
X68920426Y-104199223D01*
X66539176Y-106681345D02*
X68682851Y-104199223D01*
X66539176Y-106886396D02*
X66539176Y-106681345D01*
X66103611Y-107256974D02*
X66539176Y-106886396D01*
X65654550Y-107611563D02*
X66103611Y-107256974D01*
X65191689Y-107948548D02*
X65654550Y-107611563D01*
X64714722Y-108266316D02*
X65191689Y-107948548D01*
X52064819Y-108834356D02*
X52593407Y-109085232D01*
X51550026Y-108560922D02*
X52064819Y-108834356D01*
X51049550Y-108265627D02*
X51550026Y-108560922D01*
X50563913Y-107949166D02*
X51049550Y-108265627D01*
X50093638Y-107612241D02*
X50563913Y-107949166D01*
X49639241Y-107255546D02*
X50093638Y-107612241D01*
X66308789Y-87139031D02*
X65841065Y-86756267D01*
X66760204Y-87540396D02*
X66308789Y-87139031D01*
X66760204Y-87787340D02*
X66760204Y-87540396D01*
X68903329Y-90270012D02*
X66760204Y-87787340D01*
X69042236Y-90270012D02*
X68903329Y-90270012D01*
X69343844Y-90782658D02*
X69042236Y-90270012D01*
X69624711Y-91308666D02*
X69343844Y-90782658D01*
X69882092Y-91848789D02*
X69624711Y-91308666D01*
X70113246Y-92403768D02*
X69882092Y-91848789D01*
X70113246Y-99897538D02*
X70113246Y-92403768D01*
X45713182Y-99791705D02*
X46000000Y-100400000D01*
X64223348Y-108563245D02*
X64714722Y-108266316D01*
X63717258Y-108837720D02*
X64223348Y-108563245D01*
X63196149Y-109088127D02*
X63717258Y-108837720D01*
X62659721Y-109312847D02*
X63196149Y-109088127D01*
X53135271Y-109312847D02*
X62659721Y-109312847D01*
X52593407Y-109085232D02*
X53135271Y-109312847D01*
X45713182Y-94369400D02*
X45713182Y-99791705D01*
X46200000Y-93500000D02*
X45713182Y-94369400D01*
X49296095Y-87589454D02*
X47152423Y-90071576D01*
X49296095Y-87296206D02*
X49296095Y-87589454D01*
X69135950Y-103875658D02*
X69150000Y-103150000D01*
X68920426Y-104199223D02*
X69135950Y-103875658D01*
X46900517Y-90071576D02*
X46688850Y-90334506D01*
X47152423Y-90071576D02*
X46900517Y-90071576D01*
X53166172Y-84933148D02*
X53166177Y-84933148D01*
X53166166Y-84933148D02*
X53166172Y-84933148D01*
X53166160Y-84933148D02*
X53166166Y-84933148D01*
X53166155Y-84933148D02*
X53166160Y-84933148D01*
X53166149Y-84933148D02*
X53166155Y-84933148D01*
X51128073Y-85945885D02*
X50649029Y-86252870D01*
X53166143Y-84933148D02*
X53166149Y-84933148D01*
X53166138Y-84933148D02*
X53166143Y-84933148D01*
X53166132Y-84933148D02*
X53166138Y-84933148D01*
X62691682Y-84933148D02*
X53166132Y-84933148D01*
X63257467Y-85173243D02*
X62691682Y-84933148D01*
X63806884Y-85440815D02*
X63257467Y-85173243D01*
X64339942Y-85734380D02*
X63806884Y-85440815D01*
X64856651Y-86052464D02*
X64339942Y-85734380D01*
X65357020Y-86393586D02*
X64856651Y-86052464D01*
X65841065Y-86756267D02*
X65357020Y-86393586D01*
X69600000Y-100750000D02*
X70113246Y-99897538D01*
X49201249Y-106879781D02*
X49639241Y-107255546D01*
X49201249Y-106540784D02*
X49201249Y-106879781D01*
X47058126Y-104058662D02*
X49201249Y-106540784D01*
X46885596Y-104058662D02*
X47058126Y-104058662D01*
X46612193Y-103676118D02*
X46885596Y-104058662D01*
X46600000Y-103100000D02*
X46612193Y-103676118D01*
X52124120Y-85395634D02*
X51620000Y-85660000D01*
X52639743Y-85153208D02*
X52124120Y-85395634D01*
X49732348Y-86928453D02*
X49296095Y-87296206D01*
X50183557Y-86580533D02*
X49732348Y-86928453D01*
X50649029Y-86252870D02*
X50183557Y-86580533D01*
X51620000Y-85660000D02*
X51128073Y-85945885D01*
M02*
