G04 #@! TF.FileFunction,Copper,L1,Top,Signal*
%FSLAX46Y46*%
G04 Gerber Fmt 4.6, Leading zero omitted, Abs format (unit mm)*
G04 Created by KiCad (PCBNEW 4.0.2-stable) date Mon 11 Apr 2016 05:04:25 PM CEST*
%MOMM*%
G01*
G04 APERTURE LIST*
%ADD10C,0.100000*%
%ADD11R,0.600000X0.500000*%
%ADD12R,0.373000X1.509000*%
%ADD13R,0.300000X0.800000*%
%ADD14R,0.300000X0.850000*%
%ADD15R,0.800000X0.300000*%
%ADD16R,0.850000X0.300000*%
%ADD17R,1.837500X1.837500*%
%ADD18C,4.000000*%
%ADD19C,1.200000*%
%ADD20R,1.200000X0.800000*%
%ADD21R,1.100000X1.500000*%
%ADD22R,1.000000X2.250000*%
%ADD23R,0.600000X0.400000*%
%ADD24R,0.400000X0.600000*%
%ADD25R,0.350000X0.800000*%
%ADD26R,0.500000X0.600000*%
%ADD27R,0.240000X0.800000*%
%ADD28C,0.460000*%
%ADD29C,2.500000*%
%ADD30C,0.600000*%
%ADD31C,0.200000*%
%ADD32C,0.300000*%
G04 APERTURE END LIST*
D10*
D11*
X55555500Y-105191000D03*
X55555500Y-104191000D03*
X54255500Y-104691000D03*
D12*
X48830000Y-90910000D03*
X49532000Y-90910000D03*
X50234000Y-90910000D03*
X50936000Y-90910000D03*
X51638000Y-90910000D03*
X52340000Y-90910000D03*
X53042000Y-90910000D03*
X53744000Y-90910000D03*
X54446000Y-90910000D03*
X55148000Y-90910000D03*
X55850000Y-90910000D03*
X56552000Y-90910000D03*
X57254000Y-90910000D03*
X57956000Y-90910000D03*
X58658000Y-90910000D03*
X59360000Y-90910000D03*
X60062000Y-90910000D03*
X60764000Y-90910000D03*
X61466000Y-90910000D03*
X62168000Y-90910000D03*
X62870000Y-90910000D03*
X63572000Y-90910000D03*
X64274000Y-90910000D03*
X64976000Y-90910000D03*
X65678000Y-90910000D03*
X66380000Y-90910000D03*
X67082000Y-90910000D03*
D10*
G36*
X64783318Y-103190264D02*
X64429764Y-103543818D01*
X64005500Y-103119554D01*
X64359054Y-102766000D01*
X64783318Y-103190264D01*
X64783318Y-103190264D01*
G37*
G36*
X64005500Y-102412446D02*
X63651946Y-102766000D01*
X63227682Y-102341736D01*
X63581236Y-101988182D01*
X64005500Y-102412446D01*
X64005500Y-102412446D01*
G37*
D11*
X67180500Y-96891000D03*
X68280500Y-96891000D03*
X59405500Y-105741000D03*
X58305500Y-105741000D03*
D13*
X61750000Y-94025000D03*
D14*
X61250000Y-94050000D03*
X60750000Y-94050000D03*
X60250000Y-94050000D03*
X59750000Y-94050000D03*
X59250000Y-94050000D03*
X58750000Y-94050000D03*
X58250000Y-94050000D03*
X57750000Y-94050000D03*
X57250000Y-94050000D03*
X56750000Y-94050000D03*
X56250000Y-94050000D03*
X55750000Y-94050000D03*
X55250000Y-94050000D03*
X54750000Y-94050000D03*
D13*
X54250000Y-94025000D03*
D15*
X53525000Y-94750000D03*
D16*
X53550000Y-95250000D03*
X53550000Y-95750000D03*
X53550000Y-96250000D03*
X53550000Y-96750000D03*
X53550000Y-97250000D03*
X53550000Y-97750000D03*
X53550000Y-98250000D03*
X53550000Y-98750000D03*
X53550000Y-99250000D03*
X53550000Y-99750000D03*
X53550000Y-100250000D03*
X53550000Y-100750000D03*
X53550000Y-101250000D03*
X53550000Y-101750000D03*
D15*
X53525000Y-102250000D03*
D13*
X54250000Y-102975000D03*
D14*
X54750000Y-102950000D03*
X55250000Y-102950000D03*
X55750000Y-102950000D03*
X56250000Y-102950000D03*
X56750000Y-102950000D03*
X57250000Y-102950000D03*
X57750000Y-102950000D03*
X58250000Y-102950000D03*
X58750000Y-102950000D03*
X59250000Y-102950000D03*
X59750000Y-102950000D03*
X60250000Y-102950000D03*
X60750000Y-102950000D03*
X61250000Y-102950000D03*
D13*
X61750000Y-102975000D03*
D15*
X62475000Y-102250000D03*
D16*
X62450000Y-101750000D03*
X62450000Y-101250000D03*
X62450000Y-100750000D03*
X62450000Y-100250000D03*
X62450000Y-99750000D03*
X62450000Y-99250000D03*
X62450000Y-98750000D03*
X62450000Y-98250000D03*
X62450000Y-97750000D03*
X62450000Y-97250000D03*
X62450000Y-96750000D03*
X62450000Y-96250000D03*
X62450000Y-95750000D03*
X62450000Y-95250000D03*
D15*
X62475000Y-94750000D03*
D17*
X55243750Y-101256250D03*
X57081250Y-101256250D03*
X58918750Y-101256250D03*
X60756250Y-101256250D03*
X55243750Y-99418750D03*
X57081250Y-99418750D03*
X58918750Y-99418750D03*
X60756250Y-99418750D03*
X55243750Y-97581250D03*
X57081250Y-97581250D03*
X58918750Y-97581250D03*
X60756250Y-97581250D03*
X55243750Y-95743750D03*
X57081250Y-95743750D03*
X58918750Y-95743750D03*
X60756250Y-95743750D03*
D18*
X70200000Y-102100000D03*
D19*
X66770000Y-104940000D03*
D20*
X64500000Y-106541000D03*
X64500000Y-107540000D03*
D21*
X56380000Y-106790000D03*
X51300000Y-106790000D03*
D19*
X49070000Y-104890000D03*
D18*
X45600000Y-101900000D03*
D22*
X46500000Y-98600000D03*
X46500000Y-95550000D03*
D18*
X45600000Y-92300000D03*
D19*
X53500000Y-85750000D03*
X55250000Y-85750000D03*
X57960000Y-88600000D03*
D23*
X56505500Y-103941000D03*
X56505500Y-104841000D03*
D24*
X50200000Y-93250000D03*
X49300000Y-93250000D03*
D10*
G36*
X65277818Y-101424264D02*
X64924264Y-101777818D01*
X64500000Y-101353554D01*
X64853554Y-101000000D01*
X65277818Y-101424264D01*
X65277818Y-101424264D01*
G37*
G36*
X64500000Y-100646446D02*
X64146446Y-101000000D01*
X63722182Y-100575736D01*
X64075736Y-100222182D01*
X64500000Y-100646446D01*
X64500000Y-100646446D01*
G37*
D24*
X49300000Y-94500000D03*
X50200000Y-94500000D03*
D11*
X58605500Y-104691000D03*
X57505500Y-104691000D03*
D25*
X51625000Y-102300000D03*
X48625000Y-102300000D03*
X51625000Y-98750000D03*
X48625000Y-98750000D03*
D11*
X66980500Y-93266000D03*
X68080500Y-93266000D03*
D26*
X69255500Y-94541000D03*
X69255500Y-95641000D03*
X69255500Y-97491000D03*
X69255500Y-96391000D03*
D27*
X66955500Y-95991000D03*
X67355500Y-95991000D03*
X67755500Y-95991000D03*
X68155500Y-95991000D03*
X68555500Y-95991000D03*
X68555500Y-94291000D03*
X68155500Y-94291000D03*
X67755500Y-94291000D03*
X67355500Y-94291000D03*
X66955500Y-94291000D03*
D28*
X59155500Y-103891000D03*
X59405500Y-92891000D03*
D29*
X57955500Y-99291000D03*
D30*
X66105500Y-93616000D03*
X67030500Y-98266000D03*
X64005500Y-98391000D03*
X53405500Y-103941000D03*
X55243750Y-101256250D03*
D28*
X58918750Y-95743750D03*
D30*
X59255500Y-89241000D03*
D28*
X56581250Y-95743750D03*
X47800000Y-94400000D03*
X48500009Y-93000000D03*
X49505500Y-92141000D03*
X52505500Y-102341000D03*
X52655500Y-102941000D03*
X48805500Y-92141000D03*
X52755500Y-101741000D03*
X50205500Y-92141000D03*
X50905500Y-92441000D03*
X52355500Y-101241000D03*
X52355500Y-100241000D03*
X52255500Y-92141000D03*
X52755500Y-100741000D03*
X51555500Y-92291000D03*
X58005500Y-93091000D03*
X55916192Y-93209160D03*
X58555500Y-92041000D03*
X55303850Y-93200018D03*
X57855500Y-92041000D03*
X54600000Y-93200000D03*
X57155500Y-92041000D03*
X53987597Y-93200000D03*
X56552000Y-89794500D03*
X52740965Y-98750006D03*
X55850000Y-89796500D03*
X52387362Y-99250005D03*
X55148000Y-89798500D03*
X52740965Y-99750006D03*
D19*
X51835500Y-108321000D03*
D28*
X46500000Y-95550000D03*
X48549999Y-93767768D03*
X52230500Y-104491000D03*
X59905500Y-105091000D03*
X47455500Y-99291000D03*
X50605500Y-102991000D03*
X66155500Y-104266000D03*
X62805500Y-105341000D03*
D30*
X49905500Y-103941000D03*
D28*
X53630022Y-93791000D03*
D30*
X62855500Y-93991000D03*
X53305500Y-105191000D03*
X62450000Y-102896500D03*
X58305500Y-103891000D03*
D28*
X66505500Y-94941000D03*
X64605500Y-97691000D03*
X63155500Y-103141000D03*
X67705500Y-95141000D03*
X69105500Y-93791000D03*
X63605500Y-103591000D03*
X67680500Y-92691000D03*
X67530500Y-97591000D03*
X65905500Y-97641000D03*
X63121298Y-105865698D03*
X50365321Y-98130000D03*
X50767590Y-94500000D03*
X51883039Y-103132099D03*
X47605500Y-98691000D03*
D31*
X59355500Y-104091000D02*
X59155500Y-103891000D01*
X59355500Y-105541000D02*
X59355500Y-104091000D01*
X59405500Y-105591000D02*
X59355500Y-105541000D01*
X59405500Y-105741000D02*
X59405500Y-105591000D01*
X59250000Y-93046500D02*
X59405500Y-92891000D01*
X59250000Y-94050000D02*
X59250000Y-93046500D01*
X58055500Y-99591000D02*
X58746500Y-99591000D01*
X58746500Y-99591000D02*
X58918750Y-99418750D01*
X58918750Y-99418750D02*
X57081250Y-99418750D01*
X53405500Y-103941000D02*
X51977986Y-103941000D01*
X51977986Y-103941000D02*
X51250000Y-103213014D01*
X51250000Y-103213014D02*
X51250000Y-102900000D01*
X51250000Y-102900000D02*
X51625000Y-102525000D01*
X51625000Y-102525000D02*
X51625000Y-102300000D01*
D32*
X50855500Y-102300000D02*
X51255500Y-102300000D01*
X50300000Y-102300000D02*
X50855500Y-102300000D01*
D31*
X55555500Y-104191000D02*
X55055500Y-104191000D01*
X54957910Y-104093410D02*
X53557910Y-104093410D01*
X53557910Y-104093410D02*
X53405500Y-103941000D01*
X55055500Y-104191000D02*
X54957910Y-104093410D01*
D32*
X62450000Y-101750000D02*
X63264500Y-101750000D01*
X63264500Y-101750000D02*
X63616591Y-102102091D01*
X63616591Y-102102091D02*
X63616591Y-102377091D01*
D31*
X66955500Y-94291000D02*
X66955500Y-93941000D01*
X66955500Y-93941000D02*
X66630500Y-93616000D01*
D32*
X66105500Y-93616000D02*
X66630500Y-93616000D01*
X66630500Y-93616000D02*
X66980500Y-93266000D01*
X67030500Y-98266000D02*
X67705500Y-98266000D01*
X67705500Y-98266000D02*
X68280500Y-97691000D01*
X68280500Y-97691000D02*
X68280500Y-96891000D01*
X68280500Y-96891000D02*
X68505500Y-96891000D01*
X68505500Y-96891000D02*
X68905500Y-96491000D01*
D31*
X53550000Y-94750000D02*
X53601000Y-94801000D01*
X53601000Y-94801000D02*
X54301000Y-94801000D01*
X54301000Y-94801000D02*
X55243750Y-95743750D01*
D32*
X63646500Y-98750000D02*
X64005500Y-98391000D01*
X62450000Y-98750000D02*
X63646500Y-98750000D01*
X69255500Y-96391000D02*
X69255500Y-96441000D01*
X53405500Y-103941000D02*
X53405500Y-103991000D01*
X57250000Y-102950000D02*
X57250000Y-104435500D01*
X57250000Y-104435500D02*
X57505500Y-104691000D01*
X57505500Y-104691000D02*
X57505500Y-104841000D01*
X57505500Y-104841000D02*
X58305500Y-105641000D01*
X58305500Y-105641000D02*
X58305500Y-105741000D01*
X58614500Y-88600000D02*
X59255500Y-89241000D01*
X57960000Y-88600000D02*
X58614500Y-88600000D01*
X50300000Y-102300000D02*
X48625000Y-102300000D01*
X51255500Y-102300000D02*
X51625000Y-102300000D01*
X68905500Y-96491000D02*
X68905500Y-96041000D01*
X69255500Y-96391000D02*
X68905500Y-96041000D01*
X68905500Y-96041000D02*
X68855500Y-95991000D01*
X68855500Y-95991000D02*
X68905500Y-95991000D01*
D31*
X68555500Y-95991000D02*
X68905500Y-95991000D01*
D32*
X68905500Y-95991000D02*
X69255500Y-95641000D01*
X62450000Y-101750000D02*
X61250000Y-101750000D01*
X61250000Y-101750000D02*
X61250000Y-100587500D01*
X61250000Y-100587500D02*
X61587500Y-100250000D01*
X61587500Y-100250000D02*
X62450000Y-100250000D01*
X61250000Y-101750000D02*
X60756250Y-101256250D01*
X62450000Y-100250000D02*
X61587500Y-100250000D01*
X61587500Y-100250000D02*
X60756250Y-99418750D01*
X57081250Y-101256250D02*
X55243750Y-101256250D01*
X55243750Y-99418750D02*
X55243750Y-101256250D01*
X57081250Y-97581250D02*
X57081250Y-95743750D01*
X55243750Y-97581250D02*
X57081250Y-97581250D01*
X55243750Y-99418750D02*
X55243750Y-97581250D01*
X57081250Y-99418750D02*
X55243750Y-99418750D01*
X58918750Y-99418750D02*
X58918750Y-101256250D01*
X60756250Y-99418750D02*
X58918750Y-99418750D01*
X58918750Y-97581250D02*
X58918750Y-99418750D01*
X60756250Y-97581250D02*
X58918750Y-97581250D01*
X60756250Y-95743750D02*
X60756250Y-97581250D01*
X58918750Y-95743750D02*
X58918750Y-97581250D01*
X55243750Y-95743750D02*
X55243750Y-97581250D01*
X56568000Y-101444000D02*
X56399250Y-101275250D01*
X56581250Y-101256250D02*
X56750000Y-101425000D01*
X58418750Y-95743750D02*
X56581250Y-95743750D01*
X58243000Y-95769000D02*
X58236750Y-95762750D01*
X61250000Y-101750000D02*
X60756250Y-101256250D01*
X63750000Y-100250000D02*
X62450000Y-100250000D01*
X64111091Y-100611091D02*
X63750000Y-100250000D01*
X62450000Y-95750000D02*
X60262500Y-95750000D01*
X61425000Y-98750000D02*
X60756250Y-99418750D01*
X62450000Y-98750000D02*
X61425000Y-98750000D01*
X61587500Y-100250000D02*
X60756250Y-99418750D01*
X57250000Y-101425000D02*
X57081250Y-101256250D01*
X57250000Y-102950000D02*
X57250000Y-101425000D01*
D31*
X48755500Y-96942767D02*
X48648309Y-96942767D01*
X53232401Y-89017599D02*
X54250000Y-88000000D01*
X54250000Y-88000000D02*
X54250000Y-86500000D01*
X54250000Y-86500000D02*
X53500000Y-85750000D01*
X47947590Y-89724036D02*
X48654027Y-89017599D01*
X48031553Y-93917599D02*
X47947590Y-93833636D01*
X48654027Y-89017599D02*
X53232401Y-89017599D01*
X48282401Y-96482401D02*
X48282401Y-94214124D01*
X47947590Y-93833636D02*
X47947590Y-89724036D01*
X48282401Y-94214124D02*
X48031553Y-93917599D01*
X48282401Y-96576859D02*
X48282401Y-96482401D01*
X48648309Y-96942767D02*
X48282401Y-96576859D01*
X53550000Y-95750000D02*
X51522002Y-95750000D01*
X51522002Y-95750000D02*
X50329235Y-96942767D01*
X50329235Y-96942767D02*
X48755500Y-96942767D01*
X48755500Y-96942767D02*
X48742767Y-96942767D01*
X48500009Y-93000000D02*
X48300000Y-92799991D01*
X48300000Y-92799991D02*
X48300000Y-89870009D01*
X48300000Y-89870009D02*
X48800000Y-89370009D01*
X47787591Y-96580421D02*
X47787591Y-94479999D01*
X48502348Y-97295178D02*
X47787591Y-96580421D01*
X51520386Y-96250000D02*
X50475208Y-97295178D01*
X50475208Y-97295178D02*
X48502348Y-97295178D01*
X53550000Y-96250000D02*
X51520386Y-96250000D01*
X47787591Y-94412409D02*
X47800000Y-94400000D01*
X47787591Y-94479999D02*
X47787591Y-94412409D01*
X49300000Y-93250000D02*
X48750009Y-93250000D01*
X48750009Y-93250000D02*
X48500009Y-93000000D01*
X54602410Y-86397590D02*
X55250000Y-85750000D01*
X48800000Y-89370009D02*
X53378374Y-89370009D01*
X53378374Y-89370009D02*
X54602410Y-88145973D01*
X54602410Y-88145973D02*
X54602410Y-86397590D01*
X49505500Y-92141000D02*
X49532000Y-92114500D01*
X49532000Y-92114500D02*
X49532000Y-90910000D01*
X52496500Y-102250000D02*
X52505500Y-102259000D01*
X52505500Y-102259000D02*
X52505500Y-102341000D01*
X53550000Y-102250000D02*
X52496500Y-102250000D01*
X52655500Y-102941000D02*
X54241000Y-102941000D01*
X54241000Y-102941000D02*
X54250000Y-102950000D01*
X48830000Y-92116500D02*
X48830000Y-90910000D01*
X48805500Y-92141000D02*
X48830000Y-92116500D01*
X53550000Y-101750000D02*
X52764500Y-101750000D01*
X52764500Y-101750000D02*
X52755500Y-101741000D01*
X50234000Y-92112500D02*
X50234000Y-90910000D01*
X50205500Y-92141000D02*
X50234000Y-92112500D01*
X50936000Y-92410500D02*
X50936000Y-90910000D01*
X50905500Y-92441000D02*
X50936000Y-92410500D01*
X52364500Y-101250000D02*
X52355500Y-101241000D01*
X53550000Y-101250000D02*
X52364500Y-101250000D01*
X53550000Y-100250000D02*
X52364500Y-100250000D01*
X52364500Y-100250000D02*
X52355500Y-100241000D01*
X52340000Y-92056500D02*
X52340000Y-90910000D01*
X52255500Y-92141000D02*
X52340000Y-92056500D01*
X52328525Y-90921475D02*
X52340000Y-90910000D01*
X51555500Y-92291000D02*
X51638000Y-92208500D01*
X51638000Y-92208500D02*
X51638000Y-90910000D01*
X53550000Y-100750000D02*
X52764500Y-100750000D01*
X52764500Y-100750000D02*
X52755500Y-100741000D01*
X57250000Y-93425000D02*
X57250000Y-94050000D01*
X57250000Y-92863956D02*
X57250000Y-93425000D01*
X54594276Y-92012776D02*
X56398820Y-92012776D01*
X56398820Y-92012776D02*
X57250000Y-92863956D01*
X54446000Y-90910000D02*
X54446000Y-91864500D01*
X54446000Y-91864500D02*
X54594276Y-92012776D01*
X56759793Y-92872133D02*
X56252847Y-92365187D01*
X53744000Y-91864500D02*
X53744000Y-90910000D01*
X56252847Y-92365187D02*
X54244687Y-92365187D01*
X54244687Y-92365187D02*
X53744000Y-91864500D01*
X56759793Y-94040207D02*
X56759793Y-92872133D01*
X56750000Y-94050000D02*
X56759793Y-94040207D01*
X56250000Y-93589327D02*
X56407382Y-93431945D01*
X53895098Y-92717598D02*
X53042000Y-91864500D01*
X56250000Y-94050000D02*
X56250000Y-93589327D01*
X56106875Y-92717599D02*
X53895098Y-92717598D01*
X53042000Y-91864500D02*
X53042000Y-90910000D01*
X56407382Y-93018106D02*
X56106875Y-92717599D01*
X56407382Y-93431945D02*
X56407382Y-93018106D01*
X59360000Y-90910000D02*
X59360000Y-91936500D01*
X59360000Y-91936500D02*
X58205500Y-93091000D01*
X58205500Y-93091000D02*
X58005500Y-93091000D01*
X55750000Y-94050000D02*
X55750000Y-93425000D01*
X55750000Y-93425000D02*
X55916192Y-93258808D01*
X55916192Y-93258808D02*
X55916192Y-93209160D01*
X58658000Y-90910000D02*
X58658000Y-91938500D01*
X58658000Y-91938500D02*
X58555500Y-92041000D01*
X55250000Y-93253868D02*
X55303850Y-93200018D01*
X55250000Y-94050000D02*
X55250000Y-93253868D01*
X57956000Y-90910000D02*
X57956000Y-91940500D01*
X57956000Y-91940500D02*
X57855500Y-92041000D01*
X54750000Y-94050000D02*
X54750000Y-93350000D01*
X54750000Y-94050000D02*
X54750006Y-94049994D01*
X54750006Y-94049994D02*
X54750006Y-93796208D01*
X54750000Y-93350000D02*
X54600000Y-93200000D01*
X57254000Y-90910000D02*
X57254000Y-91942500D01*
X57254000Y-91942500D02*
X57155500Y-92041000D01*
X54250000Y-94050000D02*
X54250000Y-93563954D01*
X54250000Y-93563954D02*
X53987597Y-93301551D01*
X53987597Y-93301551D02*
X53987597Y-93200000D01*
X54250000Y-94050000D02*
X54250000Y-93850000D01*
X56552000Y-90910000D02*
X56552000Y-89794500D01*
X53550000Y-98750000D02*
X52740971Y-98750000D01*
X52740971Y-98750000D02*
X52740965Y-98750006D01*
X55850000Y-90910000D02*
X55850000Y-89796500D01*
X53550000Y-99250000D02*
X52387367Y-99250000D01*
X52387367Y-99250000D02*
X52387362Y-99250005D01*
X55148000Y-90910000D02*
X55148000Y-89798500D01*
X53550000Y-99750000D02*
X52740971Y-99750000D01*
X52740971Y-99750000D02*
X52740965Y-99750006D01*
X61750000Y-94050000D02*
X61750000Y-92946500D01*
X62870000Y-91826500D02*
X62870000Y-90910000D01*
X61750000Y-92946500D02*
X62870000Y-91826500D01*
X59750000Y-94050000D02*
X59750000Y-93296500D01*
X59750000Y-93296500D02*
X60062000Y-92984500D01*
X60062000Y-92984500D02*
X60062000Y-90910000D01*
X60250000Y-94050000D02*
X60250000Y-93294872D01*
X60250000Y-93294872D02*
X60414402Y-93130470D01*
X60764000Y-91832500D02*
X60764000Y-90910000D01*
X60414402Y-92182098D02*
X60764000Y-91832500D01*
X60414402Y-93130470D02*
X60414402Y-92182098D01*
X60750000Y-94050000D02*
X60750000Y-93646500D01*
X60750000Y-93646500D02*
X60766804Y-93629696D01*
X60766804Y-93629696D02*
X60766804Y-92529696D01*
X60766804Y-92529696D02*
X61466000Y-91830500D01*
X61466000Y-91830500D02*
X61466000Y-90910000D01*
X61466000Y-91628872D02*
X61466000Y-90910000D01*
X61466000Y-91628872D02*
X61466000Y-90910000D01*
X61250000Y-94050000D02*
X61250000Y-92746500D01*
X62168000Y-91828500D02*
X62168000Y-90910000D01*
X61250000Y-92746500D02*
X62168000Y-91828500D01*
X62450000Y-94750000D02*
X62450000Y-94635500D01*
X62450000Y-94635500D02*
X62205500Y-94391000D01*
X63572000Y-91824500D02*
X63572000Y-90910000D01*
X62205500Y-93191000D02*
X63572000Y-91824500D01*
X62205500Y-94391000D02*
X62205500Y-93191000D01*
X62450000Y-94750000D02*
X62450000Y-94735500D01*
X62450000Y-98250000D02*
X63189988Y-98250000D01*
X67082000Y-91814500D02*
X67082000Y-90910000D01*
X64917510Y-93978990D02*
X67082000Y-91814500D01*
X64917510Y-96522478D02*
X64917510Y-93978990D01*
X63189988Y-98250000D02*
X64917510Y-96522478D01*
X62450000Y-97750000D02*
X63191616Y-97750000D01*
X66380000Y-91816500D02*
X66380000Y-90910000D01*
X64565108Y-93631392D02*
X66380000Y-91816500D01*
X64565108Y-96376508D02*
X64565108Y-93631392D01*
X63191616Y-97750000D02*
X64565108Y-96376508D01*
X62450000Y-97250000D02*
X63193244Y-97250000D01*
X65678000Y-91818500D02*
X65678000Y-90910000D01*
X64212706Y-93283794D02*
X65678000Y-91818500D01*
X64212706Y-96230538D02*
X64212706Y-93283794D01*
X63193244Y-97250000D02*
X64212706Y-96230538D01*
X62450000Y-96750000D02*
X63194872Y-96750000D01*
X64976000Y-91770500D02*
X64976000Y-90910000D01*
X63860304Y-92886196D02*
X64976000Y-91770500D01*
X63860304Y-96084568D02*
X63860304Y-92886196D01*
X63194872Y-96750000D02*
X63860304Y-96084568D01*
X64274000Y-91822500D02*
X64274000Y-90910000D01*
X63507902Y-92588598D02*
X64274000Y-91822500D01*
X62450000Y-96250000D02*
X63196500Y-96250000D01*
X63196500Y-96250000D02*
X63507902Y-95938598D01*
X63507902Y-95938598D02*
X63507902Y-92588598D01*
X55555500Y-105191000D02*
X56155500Y-105191000D01*
X56155500Y-105191000D02*
X56505500Y-104841000D01*
X56250000Y-102950000D02*
X56250000Y-103685500D01*
X56250000Y-103685500D02*
X56505500Y-103941000D01*
X53657902Y-104593402D02*
X53755500Y-104691000D01*
X53755500Y-104691000D02*
X54255500Y-104691000D01*
X51455500Y-106041000D02*
X52903098Y-104593402D01*
X52903098Y-104593402D02*
X53657902Y-104593402D01*
X51300000Y-106790000D02*
X51300000Y-107785500D01*
X51300000Y-107785500D02*
X51835500Y-108321000D01*
X51300000Y-106790000D02*
X51300000Y-106196500D01*
X51300000Y-106196500D02*
X51455500Y-106041000D01*
X51455500Y-106041000D02*
X51300000Y-106790000D01*
X54155500Y-104841000D02*
X54153098Y-104841000D01*
X51455500Y-106041000D02*
X51300000Y-106790000D01*
X53550000Y-98250000D02*
X52527017Y-98250000D01*
X52527017Y-98250000D02*
X52027017Y-98750000D01*
X52027017Y-98750000D02*
X51625000Y-98750000D01*
X48549999Y-93767768D02*
X48779998Y-93997767D01*
X48779998Y-93997767D02*
X48779998Y-94379998D01*
X48779998Y-94379998D02*
X48900000Y-94500000D01*
X49300000Y-94500000D02*
X48900000Y-94500000D01*
X46500000Y-95500000D02*
X46500000Y-96420678D01*
X51855500Y-104316897D02*
X52029603Y-104491000D01*
X59750000Y-104935500D02*
X59750000Y-102950000D01*
X59750000Y-104935500D02*
X59905500Y-105091000D01*
X52029603Y-104491000D02*
X52230500Y-104491000D01*
X50605500Y-102991000D02*
X50605500Y-103066897D01*
X50605500Y-103066897D02*
X50897590Y-103358987D01*
X51832013Y-104293410D02*
X51855500Y-104316897D01*
X51855500Y-104316897D02*
X50897590Y-103358987D01*
X47455500Y-99291000D02*
X47191000Y-99291000D01*
X46500000Y-98600000D02*
X47191000Y-99291000D01*
X46614500Y-98600000D02*
X46500000Y-98600000D01*
X66155500Y-104266000D02*
X66770000Y-104880500D01*
X66770000Y-104880500D02*
X66770000Y-104940000D01*
X66770000Y-104855500D02*
X66770000Y-104940000D01*
X62455500Y-105341000D02*
X62805500Y-105341000D01*
X61755500Y-104641000D02*
X62455500Y-105341000D01*
X60750000Y-103635500D02*
X61755500Y-104641000D01*
X60750000Y-102950000D02*
X60750000Y-103635500D01*
X60755500Y-102955500D02*
X60750000Y-102950000D01*
X66770000Y-104940000D02*
X66704500Y-104940000D01*
X66654500Y-104940000D02*
X66770000Y-104940000D01*
X66770000Y-104940000D02*
X67060000Y-104940000D01*
D32*
X49070000Y-104776500D02*
X49905500Y-103941000D01*
X56380000Y-106790000D02*
X54904500Y-106790000D01*
X54904500Y-106790000D02*
X53305500Y-105191000D01*
X53630022Y-93791000D02*
X52944500Y-93791000D01*
X52944500Y-93791000D02*
X52894500Y-93841000D01*
D31*
X62996500Y-95250000D02*
X63155492Y-95091008D01*
X63155492Y-95091008D02*
X63155492Y-94290992D01*
X62450000Y-95250000D02*
X62996500Y-95250000D01*
X63155492Y-94290992D02*
X62855500Y-93991000D01*
D32*
X52894500Y-93841000D02*
X52500000Y-94235500D01*
X52500000Y-94250000D02*
X52500000Y-94235500D01*
X52500000Y-94235500D02*
X51514500Y-93250000D01*
X51514500Y-93250000D02*
X50200000Y-93250000D01*
X52500000Y-94250000D02*
X52500000Y-94196500D01*
X56380000Y-106790000D02*
X55904500Y-106790000D01*
X53305500Y-105141000D02*
X53305500Y-105191000D01*
X49070000Y-104890000D02*
X49070000Y-104776500D01*
X57750000Y-103835500D02*
X58055500Y-104141000D01*
X58055500Y-104141000D02*
X58605500Y-104691000D01*
X58305500Y-103891000D02*
X58055500Y-104141000D01*
X57750000Y-102950000D02*
X57750000Y-103835500D01*
X62450000Y-102250000D02*
X62450000Y-102896500D01*
X52500000Y-94250000D02*
X52500000Y-95000000D01*
X52500000Y-95000000D02*
X52750000Y-95250000D01*
X52750000Y-95250000D02*
X53550000Y-95250000D01*
D31*
X68155500Y-95991000D02*
X68155500Y-95441000D01*
X68605500Y-95191000D02*
X69255500Y-94541000D01*
X68405500Y-95191000D02*
X68605500Y-95191000D01*
X68155500Y-95441000D02*
X68405500Y-95191000D01*
X69255500Y-97491000D02*
X69255500Y-97516000D01*
X69255500Y-97516000D02*
X67905500Y-98866000D01*
X67905500Y-98866000D02*
X66755500Y-98866000D01*
X66755500Y-98866000D02*
X66405500Y-98516000D01*
X66405500Y-98516000D02*
X66405500Y-96541000D01*
X66405500Y-96541000D02*
X66955500Y-95991000D01*
X67155500Y-94991000D02*
X66555500Y-94991000D01*
X66555500Y-94991000D02*
X66505500Y-94941000D01*
X67355500Y-94791000D02*
X67155500Y-94991000D01*
X67355500Y-94291000D02*
X67355500Y-94791000D01*
X64605500Y-98741000D02*
X64605500Y-97691000D01*
X64096500Y-99250000D02*
X64605500Y-98741000D01*
X62450000Y-99250000D02*
X64096500Y-99250000D01*
X63155500Y-103141000D02*
X62616000Y-103680500D01*
X62616000Y-103680500D02*
X61995000Y-103680500D01*
X61995000Y-103680500D02*
X61750000Y-103435500D01*
X61750000Y-103435500D02*
X61750000Y-102950000D01*
X68155500Y-94941000D02*
X67955500Y-95141000D01*
X67955500Y-95141000D02*
X67705500Y-95141000D01*
X68155500Y-94941000D02*
X68155500Y-94291000D01*
X68655500Y-93791000D02*
X68555500Y-93891000D01*
X68555500Y-93891000D02*
X68555500Y-94291000D01*
X69105500Y-93791000D02*
X68655500Y-93791000D01*
X63105500Y-104091000D02*
X63605500Y-103591000D01*
X63655500Y-103541000D02*
X63605500Y-103591000D01*
X61805500Y-104091000D02*
X63105500Y-104091000D01*
X61250000Y-103535500D02*
X61805500Y-104091000D01*
X61250000Y-102950000D02*
X61250000Y-103535500D01*
X68555500Y-94291000D02*
X68555500Y-94091000D01*
X63555500Y-104391000D02*
X64146922Y-103799578D01*
X64146922Y-103799578D02*
X64146922Y-103402396D01*
X64146922Y-103402396D02*
X64394409Y-103154909D01*
X62450000Y-101250000D02*
X63416118Y-101250000D01*
X63416118Y-101250000D02*
X64394409Y-102228291D01*
X64394409Y-102228291D02*
X64394409Y-103154909D01*
X64500000Y-106541000D02*
X64441000Y-106541000D01*
X64441000Y-106541000D02*
X63555500Y-105655500D01*
X64444409Y-103279909D02*
X64466591Y-103279909D01*
X63555500Y-104391000D02*
X63555500Y-105655500D01*
X64500000Y-107540000D02*
X65106500Y-107540000D01*
X65106500Y-107540000D02*
X65555500Y-107091000D01*
X65555500Y-107091000D02*
X65555500Y-102891000D01*
X65555500Y-102891000D02*
X65205500Y-102541000D01*
X65205500Y-102541000D02*
X64455500Y-101791000D01*
X64486818Y-101791000D02*
X64455500Y-101791000D01*
X64888909Y-101388909D02*
X64486818Y-101791000D01*
X63414500Y-100750000D02*
X64455500Y-101791000D01*
X62450000Y-100750000D02*
X63414500Y-100750000D01*
X65006500Y-107540000D02*
X64500000Y-107540000D01*
X67680500Y-92691000D02*
X68080500Y-93091000D01*
X68080500Y-93091000D02*
X68080500Y-93266000D01*
X67755500Y-94291000D02*
X67755500Y-93591000D01*
X67755500Y-93591000D02*
X68080500Y-93266000D01*
X67180500Y-97241000D02*
X67530500Y-97591000D01*
X67180500Y-96891000D02*
X67180500Y-97241000D01*
X67355500Y-95991000D02*
X67355500Y-96716000D01*
X67355500Y-96716000D02*
X67180500Y-96891000D01*
X64296500Y-99750000D02*
X65905500Y-98141000D01*
X65905500Y-98141000D02*
X65905500Y-97641000D01*
X62450000Y-99750000D02*
X64296500Y-99750000D01*
X45600000Y-92300000D02*
X47317599Y-94017599D01*
X47317599Y-94017599D02*
X47317599Y-96608812D01*
X47317599Y-96608812D02*
X48356376Y-97647589D01*
X48356376Y-97647589D02*
X50621181Y-97647589D01*
X50621181Y-97647589D02*
X51518770Y-96750000D01*
X51518770Y-96750000D02*
X53550000Y-96750000D01*
X53550000Y-97750000D02*
X51515533Y-97750000D01*
X51515533Y-97750000D02*
X47365533Y-101900000D01*
X47365533Y-101900000D02*
X45600000Y-101900000D01*
X46300000Y-101200000D02*
X45600000Y-101900000D01*
X45700000Y-101900000D02*
X46850000Y-100750000D01*
X63121298Y-105865698D02*
X62380198Y-105865698D01*
X62380198Y-105865698D02*
X60250000Y-103735500D01*
X60250000Y-103735500D02*
X60250000Y-102950000D01*
X63148099Y-105823401D02*
X63121298Y-105850202D01*
X63121298Y-105850202D02*
X63121298Y-105865698D01*
X50365321Y-98130000D02*
X50637151Y-98130000D01*
X50200000Y-94500000D02*
X50767590Y-94500000D01*
X50637151Y-98130000D02*
X51517151Y-97250000D01*
X51517151Y-97250000D02*
X51750000Y-97250000D01*
X51750000Y-97250000D02*
X53550000Y-97250000D01*
X52955500Y-103441000D02*
X52191940Y-103441000D01*
X52191940Y-103441000D02*
X51883039Y-103132099D01*
X53655500Y-103341000D02*
X54055500Y-103741000D01*
X54055500Y-103741000D02*
X54555500Y-103741000D01*
X53055500Y-103341000D02*
X53655500Y-103341000D01*
X52955500Y-103441000D02*
X53055500Y-103341000D01*
X54750000Y-103546500D02*
X54555500Y-103741000D01*
X54750000Y-103546500D02*
X54750000Y-102950000D01*
X48625000Y-98750000D02*
X47664500Y-98750000D01*
X47664500Y-98750000D02*
X47605500Y-98691000D01*
M02*
